<?xml version="1.0" encoding="UTF-8" standalone="no"?>
<!-- Created with Inkscape (http://www.inkscape.org/) -->

<svg
   width="117.94537mm"
   height="41.79953mm"
   viewBox="0 0 117.94537 41.79953"
   version="1.1"
   id="svg1"
   inkscape:version="1.3.2 (091e20e, 2023-11-25, custom)"
   sodipodi:docname="CP_Redes.svg"
   xmlns:inkscape="http://www.inkscape.org/namespaces/inkscape"
   xmlns:sodipodi="http://sodipodi.sourceforge.net/DTD/sodipodi-0.dtd"
   xmlns="http://www.w3.org/2000/svg"
   xmlns:svg="http://www.w3.org/2000/svg">
  <sodipodi:namedview
     id="namedview1"
     pagecolor="#ffffff"
     bordercolor="#000000"
     borderopacity="0.25"
     inkscape:showpageshadow="2"
     inkscape:pageopacity="0.0"
     inkscape:pagecheckerboard="0"
     inkscape:deskcolor="#d1d1d1"
     inkscape:document-units="mm"
     inkscape:zoom="0.70710678"
     inkscape:cx="519.01638"
     inkscape:cy="545.17933"
     inkscape:window-width="1920"
     inkscape:window-height="1057"
     inkscape:window-x="-8"
     inkscape:window-y="-8"
     inkscape:window-maximized="1"
     inkscape:current-layer="layer1"
     showgrid="false" />
  <defs
     id="defs1" />
  <g
     inkscape:label="Camada 1"
     inkscape:groupmode="layer"
     id="layer1"
     transform="translate(-49.312413,-62.64321)">
    <g
       id="g3"
       style="display:inline"
       transform="matrix(0.94142023,0,0,0.94142023,-345.62436,-930.09892)"
       inkscape:label="g1"
       inkscape:export-filename="g3.png"
       inkscape:export-xdpi="137.82654"
       inkscape:export-ydpi="137.82654">
      <path
         d="m 489.05577,1069.4438 c 0.9107,0 1.6744,-0.5998 1.8541,-1.4394 h -0.7906 c -0.1363,0.4305 -0.5618,0.7032 -1.0635,0.7032 -0.747,0 -1.2379,-0.5178 -1.2379,-1.2486 0,-0.7362 0.4909,-1.2543 1.2379,-1.2543 0.5017,0 0.9272,0.278 1.0635,0.7089 h 0.7906 c -0.1797,-0.8453 -0.9487,-1.4397 -1.8541,-1.4397 -1.156,0 -1.9849,0.8671 -1.9849,1.9851 0,1.1123 0.8289,1.9848 1.9849,1.9848 z m 4.5927,0 c 1.1015,0 1.9851,-0.8725 1.9851,-1.9848 0,-1.118 -0.8836,-1.9851 -1.9851,-1.9851 -1.1016,0 -1.9795,0.8671 -1.9795,1.9851 0,1.1123 0.8779,1.9848 1.9795,1.9848 z m 0,-0.7362 c -0.6925,0 -1.2325,-0.5178 -1.2325,-1.2486 0,-0.7362 0.54,-1.2543 1.2325,-1.2543 0.6925,0 1.2325,0.5181 1.2325,1.2543 0,0.7308 -0.54,1.2486 -1.2325,1.2486 z m 6.7464,-3.1575 h -0.856 l -1.0089,2.3341 -1.0142,-2.3341 h -0.1038 -0.7526 v 3.8174 h 0.7526 v -2.563 l 0.8453,1.9522 h 0.5454 l 0.8453,-1.9522 v 2.563 h 0.7469 z m 2.6297,0 h -0.6709 -0.7526 v 3.8174 h 0.7526 v -1.2815 h 0.6709 c 0.7251,0 1.2923,-0.5672 1.2923,-1.2705 0,-0.6982 -0.5672,-1.2654 -1.2923,-1.2654 z m 0,1.8323 h -0.6709 v -1.1287 h 0.6709 c 0.3053,0 0.5397,0.2455 0.5397,0.5618 0,0.3161 -0.2344,0.5669 -0.5397,0.5669 z m 3.5892,2.0614 c 0.7688,0 1.3904,-0.4363 1.3904,-1.2433 v -2.6504 h -0.7469 v 2.5903 c 0,0.3546 -0.1964,0.5672 -0.6435,0.5672 -0.4416,0 -0.638,-0.2126 -0.638,-0.5672 v -2.5903 h -0.7526 v 2.6504 c 0,0.807 0.6216,1.2433 1.3906,1.2433 z m 4.849,-3.8937 h -0.9216 -1.6687 v 0.72 h 0.9161 v 3.0974 h 0.7526 v -3.0974 h 0.9216 z m 3.0112,3.8174 h 0.8181 l -1.298,-3.8174 h -0.9326 l -1.2977,3.8174 h 0.8124 l 0.2183,-0.6871 h 1.4613 z m -1.4561,-1.3906 0.5074,-1.5922 0.5071,1.5922 z m 4.7781,0.7307 c -0.747,0 -1.2379,-0.5178 -1.2379,-1.2486 0,-0.7362 0.4909,-1.2543 1.2379,-1.2543 0.5017,0 0.9272,0.278 1.0635,0.7089 h 0.7906 c -0.1797,-0.8453 -0.9488,-1.4397 -1.8541,-1.4397 -1.156,0 -1.9849,0.8671 -1.9849,1.9851 0,1.0307 0.709,1.8485 1.7286,1.9686 v 0.3762 c 0.2129,0.016 0.3436,0.049 0.3436,0.1363 0,0.093 -0.1908,0.1364 -0.5888,0.1092 v 0.496 c 0.9162,0.055 1.1996,-0.1743 1.1996,-0.5014 0,-0.2509 -0.1964,-0.3818 -0.3818,-0.4255 v -0.2018 c 0.769,-0.1199 1.3799,-0.6707 1.5378,-1.4122 h -0.7906 c -0.1363,0.4305 -0.5618,0.7032 -1.0635,0.7032 z m 4.0365,-3.6155 c 0.4635,0.2999 0.9924,0.2072 0.9924,-0.6597 h -0.5726 c 0,0.2727 -0.0709,0.2671 -0.2835,0.1307 -0.4691,-0.2999 -0.9927,-0.2072 -0.9927,0.6599 h 0.5673 c 0,-0.2727 0.0762,-0.2673 0.2891,-0.1309 z m 1.0142,4.2754 h 0.8181 l -1.298,-3.8174 h -0.9326 l -1.2977,3.8174 h 0.8124 l 0.2183,-0.6871 h 1.4613 z m -1.4561,-1.3906 0.5074,-1.5922 0.5071,1.5922 z m 4.7727,1.4669 c 1.1015,0 1.9851,-0.8725 1.9851,-1.9848 0,-1.118 -0.8836,-1.9851 -1.9851,-1.9851 -1.1016,0 -1.9795,0.8671 -1.9795,1.9851 0,1.1123 0.8779,1.9848 1.9795,1.9848 z m 0,-0.7362 c -0.6925,0 -1.2325,-0.5178 -1.2325,-1.2486 0,-0.7362 0.54,-1.2543 1.2325,-1.2543 0.6925,0 1.2325,0.5181 1.2325,1.2543 0,0.7308 -0.54,1.2486 -1.2325,1.2486 z"
         style="display:inline;fill:#ff7744;fill-opacity:1;fill-rule:evenodd"
         id="path175"
         inkscape:label="path175" />
      <path
         d="m 441.71177,1054.5154 c 12.261,0 22.2004,9.9394 22.2004,22.2001 0,12.261 -9.9394,22.2004 -22.2004,22.2004 -12.2607,0 -22.2001,-9.9394 -22.2001,-22.2004 0,-12.2607 9.9394,-22.2001 22.2001,-22.2001 z"
         style="display:inline;fill:#ff7744;fill-opacity:1;fill-rule:evenodd"
         id="path178" />
      <path
         d="m 512.13717,1083.6321 h 29.677 c 1.6401,0 2.982,1.3419 2.982,2.9823 v 0 c 0,1.6398 -1.3419,2.9817 -2.982,2.9817 h -29.677 c -1.6402,0 -2.9821,-1.3419 -2.9821,-2.9817 v 0 c 0,-1.6404 1.3419,-2.9823 2.9821,-2.9823 z"
         style="display:inline;fill:#ff7744;fill-opacity:1;fill-rule:evenodd"
         id="path176"
         inkscape:label="path176" />
      <path
         d="m 475.48717,1080.0145 c 0.9618,0 1.7796,-0.3385 2.4525,-1.0179 0.6798,-0.6798 1.0179,-1.4973 1.0179,-2.4529 0,-0.962 -0.3381,-1.7827 -1.0179,-2.4624 -0.6729,-0.6764 -1.4907,-1.0114 -2.4525,-1.0114 -0.9621,0 -1.783,0.335 -2.4628,1.0114 -0.6729,0.6797 -1.0111,1.5004 -1.0111,2.4624 0,0.9556 0.3382,1.7731 1.0111,2.4529 0.6798,0.6794 1.5007,1.0179 2.4628,1.0179 z m -4.3773,5.7523 c -0.2395,0 -0.443,-0.085 -0.6171,-0.2593 -0.174,-0.1741 -0.2594,-0.3776 -0.2594,-0.614 v -8.3498 c 0.007,-1.451 0.5222,-2.6858 1.55,-3.7034 1.0179,-1.0214 2.2524,-1.5302 3.7038,-1.5302 1.4479,0 2.6858,0.5123 3.71,1.5398 1.0278,1.0245 1.54,2.2623 1.54,3.7103 0,1.4513 -0.5122,2.6892 -1.54,3.7136 -1.0242,1.0276 -2.2621,1.5398 -3.71,1.5398 -1.3298,0 -2.4857,-0.4399 -3.4739,-1.3167 v 4.3966 c 0,0.2364 -0.0853,0.4399 -0.2594,0.614 -0.1743,0.174 -0.3778,0.2593 -0.6176,0.2593 z m 12.5527,-18.3999 c 0.2364,0 0.4399,0.082 0.614,0.2494 0.174,0.1741 0.2593,0.381 0.2593,0.6239 v 12.6967 c 0,0.2463 -0.0853,0.4498 -0.2593,0.6174 -0.1741,0.174 -0.3776,0.2593 -0.614,0.2593 h -0.0295 c -0.2364,0 -0.4433,-0.085 -0.6174,-0.2593 -0.1706,-0.1676 -0.2594,-0.3711 -0.2594,-0.6174 v -12.6967 c 0,-0.2429 0.0888,-0.4498 0.2594,-0.6239 0.1741,-0.1675 0.381,-0.2494 0.6174,-0.2494 z m 4.9612,4.8265 c 0,-0.2429 -0.0854,-0.4499 -0.2594,-0.6239 -0.1741,-0.174 -0.3776,-0.2594 -0.6174,-0.2594 h -0.0264 c -0.2395,0 -0.443,0.085 -0.6171,0.2594 -0.174,0.174 -0.2593,0.381 -0.2593,0.6239 v 5.2631 c 0,1.1985 0.4269,2.2263 1.2804,3.0767 0.8504,0.8535 1.8813,1.2804 3.0863,1.2804 1.1985,0 2.2261,-0.4269 3.0799,-1.2804 0.8504,-0.8504 1.2773,-1.8782 1.2773,-3.0767 v -5.2631 c 0,-0.2429 -0.0853,-0.4499 -0.2594,-0.6239 -0.1675,-0.174 -0.371,-0.2594 -0.614,-0.2594 h -0.0198 c -0.2429,0 -0.453,0.085 -0.627,0.2594 -0.1707,0.174 -0.2594,0.381 -0.2594,0.6239 v 5.2631 c 0,0.7126 -0.2495,1.3201 -0.7486,1.8258 -0.5089,0.5023 -1.1163,0.7517 -1.829,0.7517 -0.7188,0 -1.3297,-0.2494 -1.8354,-0.7517 -0.5023,-0.5057 -0.7517,-1.1132 -0.7517,-1.8258 z m 10.7135,10.2178 c 0.6928,1.0508 1.7337,1.576 3.1193,1.576 0.8767,0 1.6679,-0.3381 2.374,-1.0179 0.7322,-0.6993 1.0967,-1.5168 1.0967,-2.4559 v -0.016 c -0.9918,0.8768 -2.1507,1.3167 -3.4707,1.3167 -1.4511,0 -2.689,-0.5122 -3.7134,-1.5398 -1.0279,-1.0244 -1.5398,-2.2623 -1.5398,-3.7136 0,-1.448 0.5119,-2.6858 1.5398,-3.7103 1.0244,-1.0275 2.2623,-1.5398 3.7134,-1.5398 1.4414,0 2.6759,0.5088 3.7037,1.5302 1.0244,1.0176 1.5398,2.2524 1.5466,3.7034 v 3.9697 c 0,1.4184 -0.5516,2.6563 -1.6549,3.7136 -1.0638,1.0276 -2.2623,1.5398 -3.5954,1.5398 -2.0586,0 -3.5986,-0.7945 -4.6197,-2.3836 -0.1511,-0.2398 -0.1839,-0.4927 -0.0952,-0.762 0.0918,-0.269 0.2693,-0.453 0.5386,-0.5482 l 0.0295,-0.01 c 0.43,-0.1477 0.7715,-0.033 1.0275,0.3481 z m 6.59,-5.9069 c -0.0133,-0.9487 -0.358,-1.7532 -1.0378,-2.4165 -0.6729,-0.6664 -1.4839,-0.9981 -2.4329,-0.9981 -0.9621,0 -1.7828,0.3382 -2.4625,1.0179 -0.6729,0.6795 -1.0111,1.4973 -1.0111,2.4526 0,0.9621 0.3382,1.783 1.0111,2.4624 0.6797,0.6733 1.5004,1.0114 2.4625,1.0114 0.962,0 1.7795,-0.3381 2.4528,-1.0114 0.6794,-0.6794 1.0179,-1.5003 1.0179,-2.4624 z m 8.9569,-5.1942 c 1.4479,0 2.6858,0.5123 3.71,1.5398 1.0278,1.0245 1.5401,2.2623 1.5401,3.7103 v 4.3767 c 0,0.2463 -0.0854,0.4498 -0.2594,0.6174 -0.1741,0.174 -0.3776,0.2593 -0.614,0.2593 h -0.0295 c -0.2364,0 -0.4433,-0.085 -0.6174,-0.2593 -0.1706,-0.1676 -0.2593,-0.3711 -0.2593,-0.6174 v -0.44 c -0.995,0.8768 -2.1507,1.3167 -3.4705,1.3167 -1.4513,0 -2.6892,-0.5122 -3.7137,-1.5398 -1.0275,-1.0244 -1.5397,-2.2623 -1.5397,-3.7136 0,-1.448 0.5122,-2.6858 1.5397,-3.7103 1.0245,-1.0275 2.2624,-1.5398 3.7137,-1.5398 z m 0,1.7796 c -0.9621,0 -1.783,0.3382 -2.4627,1.0179 -0.673,0.6795 -1.0112,1.4973 -1.0112,2.4526 0,0.9621 0.3382,1.783 1.0112,2.4624 0.6797,0.6733 1.5006,1.0114 2.4627,1.0114 0.9618,0 1.7796,-0.3381 2.4525,-1.0114 0.6798,-0.6794 1.018,-1.5003 1.018,-2.4624 0,-0.9553 -0.3382,-1.7731 -1.018,-2.4526 -0.6729,-0.6797 -1.4907,-1.0179 -2.4525,-1.0179 z m 12.1385,0.02 c -0.9621,0 -1.7827,0.3384 -2.4624,1.0179 -0.673,0.6797 -1.0111,1.5007 -1.0111,2.4625 0,0.9555 0.3381,1.773 1.0111,2.4528 0.6797,0.6797 1.5003,1.021 2.4624,1.021 0.9621,0 1.7796,-0.3413 2.4528,-1.021 0.6795,-0.6798 1.018,-1.4973 1.018,-2.4528 0,-0.9618 -0.3385,-1.7828 -1.018,-2.4625 -0.6732,-0.6795 -1.4907,-1.0179 -2.4528,-1.0179 z m 4.3767,-5.7424 c 0.2364,0 0.4402,0.082 0.614,0.2494 0.1741,0.1741 0.2597,0.381 0.2597,0.6239 v 8.3495 c -0.007,1.4448 -0.5222,2.6761 -1.5466,3.6938 -1.0279,1.0213 -2.2624,1.5301 -3.7038,1.5301 -1.451,0 -2.6889,-0.5122 -3.7134,-1.5398 -1.0278,-1.0244 -1.5397,-2.2623 -1.5397,-3.7136 0,-1.448 0.5119,-2.6858 1.5397,-3.7103 1.0245,-1.0275 2.2624,-1.5398 3.7134,-1.5398 1.3201,0 2.4789,0.44 3.4708,1.3167 v -4.3866 c 0,-0.2429 0.0884,-0.4498 0.2593,-0.6239 0.1741,-0.1675 0.3807,-0.2494 0.6171,-0.2494 z m 8.051,3.9432 c 1.4479,0 2.6858,0.5123 3.71,1.5398 1.0278,1.0245 1.54,2.2623 1.54,3.7103 v 4.3767 c 0,0.2463 -0.0853,0.4498 -0.2593,0.6174 -0.1741,0.174 -0.3776,0.2593 -0.614,0.2593 h -0.0295 c -0.2364,0 -0.4433,-0.085 -0.6174,-0.2593 -0.1706,-0.1676 -0.2594,-0.3711 -0.2594,-0.6174 v -0.44 c -0.9949,0.8768 -2.1506,1.3167 -3.4704,1.3167 -1.4514,0 -2.6892,-0.5122 -3.7137,-1.5398 -1.0275,-1.0244 -1.5398,-2.2623 -1.5398,-3.7136 0,-1.448 0.5123,-2.6858 1.5398,-3.7103 1.0245,-1.0275 2.2623,-1.5398 3.7137,-1.5398 z m 0,1.7796 c -0.9621,0 -1.783,0.3382 -2.4628,1.0179 -0.6729,0.6795 -1.0111,1.4973 -1.0111,2.4526 0,0.9621 0.3382,1.783 1.0111,2.4624 0.6798,0.6733 1.5007,1.0114 2.4628,1.0114 0.9618,0 1.7796,-0.3381 2.4525,-1.0114 0.6798,-0.6794 1.0179,-1.5003 1.0179,-2.4624 0,-0.9553 -0.3381,-1.7731 -1.0179,-2.4526 -0.6729,-0.6797 -1.4907,-1.0179 -2.4525,-1.0179 z"
         style="display:inline;fill:#ff7744;fill-opacity:1;fill-rule:evenodd"
         id="path174" />
      <path
         d="m 442.89146,1088.6183 c 0,0.3009 -0.2441,0.5448 -0.5449,0.5448 -0.3009,0 -0.5448,-0.2439 -0.5448,-0.5448 l -0.0187,-9.7859 h -0.0135 c -0.5416,0.1035 -0.9978,0.2103 -1.4008,0.3044 -1.6875,0.3944 -2.5047,0.5854 -5.4411,-0.2524 l -0.1639,-0.047 c -0.3157,-0.091 -0.4341,-0.1244 -0.458,-0.1238 -0.008,3e-4 -0.027,0.01 -0.0826,0.027 -0.1703,0.051 -0.4462,0.134 -1.0282,0.2218 -0.2588,0.039 -0.5449,0.073 -0.8509,0.097 -0.2503,0.019 -0.5233,0.03 -0.8172,0.029 -1.2083,-0.01 -2.321,-0.2692 -3.2333,-0.8463 -0.8529,-0.5393 -1.5231,-1.3424 -1.9247,-2.4517 -0.3146,-0.8672 -0.338,-1.7286 -0.1741,-2.4968 0.1917,-0.898 0.643,-1.6759 1.1874,-2.1938 0.3136,-0.2983 0.5765,-0.5123 0.7931,-0.6885 0.132,-0.1076 0.2468,-0.2009 0.3205,-0.2691 v 0 c 0.3228,-0.2983 0.4246,-0.8341 0.5401,-1.4428 0.2039,-1.0733 0.4421,-2.3278 1.8071,-3.458 1.3382,-1.108 2.5345,-1.2898 3.4534,-1.4294 0.4304,-0.065 0.7849,-0.1192 0.9709,-0.2543 0.004,0 0.0758,-0.1417 0.1737,-0.3197 0.1814,-0.3297 0.4066,-0.7389 0.733,-1.079 1.0916,-1.1378 2.4341,-1.7412 3.8098,-1.8898 1.257,-0.1358 2.5398,0.1104 3.6809,0.6761 1.1402,0.5655 2.1415,1.4504 2.8366,2.5922 0.1521,0.25 0.2896,0.5121 0.4107,0.7856 1.268,-0.1852 2.5979,0.031 3.7387,0.6389 0.1095,0.058 0.2175,0.1203 0.323,0.1858 1.0112,0.6266 1.795,1.642 2.2639,2.7921 0.1527,0.375 0.2727,0.7654 0.3566,1.1625 1.0142,0.3039 1.9611,0.8825 2.6858,1.7704 0.3365,0.4126 0.6234,0.8893 0.8438,1.4325 0.4421,1.0893 0.549,2.1236 0.3788,3.0303 -0.128,0.6821 -0.4128,1.2906 -0.8301,1.7961 -0.4177,0.506 -0.9635,0.9054 -1.6128,1.1688 -0.8997,0.3651 -2.0015,0.4715 -3.2369,0.2396 -0.3269,-0.061 -0.6097,-0.1441 -0.8715,-0.2205 -0.5678,-0.1658 -1.0105,-0.295 -1.6313,0.055 l -0.0388,0.02 c -0.2021,0.1138 -0.3717,0.2071 -0.5055,0.2778 -0.1724,0.091 -0.3376,0.175 -0.4968,0.2516 -1.9688,0.9483 -2.8178,0.7481 -5.2313,0.1789 l -0.1744,-0.041 z m 4.2978,-6.3943 0.0409,-0.037 c 0.5967,-0.5541 1.3614,-0.8202 2.1196,-0.8023 0.767,0.018 1.5268,0.327 2.0997,0.9224 l 8e-4,-10e-4 0.0372,0.041 c 0.5539,0.5969 0.82,1.3613 0.8022,2.1196 -0.0181,0.7669 -0.327,1.5268 -0.9223,2.0997 l 8e-4,8e-4 -0.0409,0.037 c -0.5967,0.5539 -1.3613,0.8201 -2.1194,0.8022 -0.7671,-0.018 -1.5268,-0.3269 -2.0997,-0.9222 l -10e-4,8e-4 -0.037,-0.041 c -0.5541,-0.5967 -0.8202,-1.3613 -0.8024,-2.1194 0.018,-0.7671 0.327,-1.5267 0.9224,-2.0997 z m 0.7737,0.7734 -0.0106,0.01 c -0.3841,0.3665 -0.5835,0.8534 -0.5949,1.3445 -0.0113,0.4807 0.1575,0.9667 0.5089,1.3477 l 0.0224,0.024 c 0.3666,0.3843 0.8536,0.5835 1.3447,0.5951 0.4807,0.011 0.9667,-0.1577 1.3477,-0.5091 l 0.0239,-0.022 c 0.3842,-0.3664 0.5835,-0.8535 0.5949,-1.3444 0.0113,-0.481 -0.1575,-0.9667 -0.509,-1.3478 l -0.0225,-0.024 c -0.3664,-0.384 -0.8534,-0.5834 -1.3443,-0.5948 -0.4808,-0.011 -0.9667,0.1575 -1.3477,0.5089 z m -12.5104,-1.6157 c 0.8308,0 1.5838,0.3375 2.1291,0.8827 h 0.002 c 0.5452,0.5453 0.8827,1.2983 0.8827,2.1291 0,0.8305 -0.3375,1.5835 -0.8827,2.1289 h -0.002 c -0.5453,0.5452 -1.2983,0.8827 -2.1291,0.8827 -0.8321,0 -1.5857,-0.3375 -2.131,-0.8827 -0.5452,-0.5453 -0.8827,-1.2989 -0.8827,-2.131 0,-0.8308 0.3375,-1.5838 0.8827,-2.1291 v 0 c 0.5453,-0.5452 1.2989,-0.8827 2.131,-0.8827 z m 1.3587,1.6553 c -0.3473,-0.3467 -0.8276,-0.5612 -1.3587,-0.5612 -0.5301,0 -1.0103,0.2149 -1.3574,0.5622 l -0.001,-10e-4 c -0.3466,0.3473 -0.5613,0.8276 -0.5613,1.3587 0,0.5301 0.2151,1.0103 0.5624,1.3576 0.3471,0.3471 0.8273,0.5622 1.3574,0.5622 0.5311,0 1.0114,-0.2147 1.3587,-0.5613 0.3467,-0.3472 0.5612,-0.8277 0.5612,-1.3585 0,-0.5311 -0.2145,-1.0114 -0.5612,-1.3587 z m 19.2569,2.0754 c 0.178,-0.243 0.5198,-0.2956 0.7628,-0.1175 0.243,0.1782 0.2955,0.5198 0.1175,0.7628 -0.8449,1.1548 -1.9982,2.2355 -3.2591,3.156 -1.3695,1 -2.871,1.813 -4.2428,2.3266 -1.1663,0.4367 -2.3849,0.7534 -3.6124,0.9617 -1.2954,0.2198 -2.6091,0.3195 -3.8871,0.3131 h -0.004 c -1.2781,0.01 -2.5917,-0.093 -3.8872,-0.3131 -1.2273,-0.2083 -2.446,-0.525 -3.6122,-0.9617 -1.3719,-0.5136 -2.8734,-1.3266 -4.243,-2.3266 -1.2609,-0.9205 -2.4141,-2.0012 -3.2589,-3.156 -0.1782,-0.243 -0.1255,-0.5846 0.1175,-0.7628 0.2429,-0.1781 0.5846,-0.1255 0.7626,0.1175 0.7792,1.0649 1.8483,2.0657 3.0198,2.9211 1.2891,0.941 2.698,1.7046 3.9822,2.1855 1.0942,0.4097 2.2458,0.7083 3.4114,0.906 1.2405,0.2105 2.4898,0.3064 3.6981,0.3006 l 0.01,-10e-5 h 0.004 l 0.01,10e-5 c 1.2083,0.01 2.4576,-0.09 3.6981,-0.3006 1.1657,-0.1977 2.3173,-0.4963 3.4115,-0.906 1.2841,-0.4809 2.6932,-1.2445 3.9821,-2.1855 1.1716,-0.8554 2.2406,-1.8562 3.0198,-2.9211 z m -14.2872,-7.3745 -0.007,-3.7436 c -0.69,0.1105 -1.4001,0.1206 -2.1038,0.021 -0.277,-0.039 -0.553,-0.095 -0.8264,-0.1684 -0.4795,0.5644 -1.0457,1.0143 -1.6714,1.2774 -0.794,0.3336 -1.5837,0.4122 -2.302,0.3415 -0.4203,-0.041 -0.8163,-0.1347 -1.1743,-0.2582 -0.2797,0.3532 -0.6256,0.6519 -1.0352,0.8651 -1.4478,0.753 -2.6889,0.1164 -2.6925,0.1146 -0.269,-0.1345 -0.378,-0.4618 -0.2436,-0.7308 0.1346,-0.2691 0.4619,-0.3781 0.7309,-0.2435 0.002,0 0.7488,0.3847 1.7009,-0.1106 0.1923,-0.1 0.3643,-0.2298 0.5155,-0.3818 l -0.0689,-0.044 c -0.5526,-0.3651 -1.1352,-1.0066 -1.4356,-1.7146 -0.2644,-0.6234 -0.3218,-1.3046 0.008,-1.9315 0.212,-0.403 0.5252,-0.6609 0.8814,-0.7859 0.3114,-0.1093 0.6478,-0.1118 0.9713,-0.016 0.3035,0.089 0.5959,0.2656 0.8421,0.5193 0.3784,0.3898 0.6532,0.9678 0.6866,1.6951 0.0274,0.5996 -0.0762,1.2264 -0.3053,1.7985 0.2267,0.065 0.47,0.1148 0.7254,0.1398 0.5509,0.054 1.1586,-0.01 1.7721,-0.2646 0.35,-0.147 0.6804,-0.3798 0.9814,-0.6736 -0.2796,-0.1302 -0.5538,-0.2807 -0.8206,-0.4524 -0.5415,-0.3486 -1.1335,-0.8484 -1.6194,-1.4557 -0.4086,-0.5108 -0.7424,-1.0979 -0.9114,-1.7374 -0.2275,-0.8616 -0.1831,-1.7921 0.1155,-2.5747 0.2936,-0.7689 0.8311,-1.4034 1.5988,-1.718 0.371,-0.152 0.7352,-0.2172 1.0861,-0.2112 0.3823,0.01 0.7427,0.097 1.0747,0.2495 0.9605,0.443 1.5728,1.219 1.9063,2.122 0.3764,1.0198 0.3896,2.2049 0.1455,3.234 -0.1634,0.6888 -0.4339,1.3707 -0.7882,1.9853 0.1004,0.019 0.201,0.036 0.3019,0.051 0.6548,0.092 1.316,0.073 1.9541,-0.048 0.009,-0.6762 0.041,-1.6614 0.1407,-2.5994 l 0.002,-0.015 c 0.0561,-0.5258 0.1372,-1.0493 0.264,-1.554 0.1317,-0.5236 0.3147,-1.0348 0.5728,-1.5188 0.0634,-0.119 0.1244,-0.2258 0.1823,-0.3192 l 0.0213,-0.032 c 0.7035,-1.117 1.7305,-1.869 2.874,-2.2633 -0.0801,-0.1654 -0.1673,-0.3252 -0.2612,-0.4795 -0.585,-0.961 -1.4279,-1.7059 -2.3877,-2.1819 -0.959,-0.4756 -2.0334,-0.6828 -3.0828,-0.5693 -1.1308,0.1222 -2.2365,0.6203 -3.1388,1.5605 -0.2234,0.233 -0.411,0.5739 -0.5619,0.8483 -0.1635,0.2972 -0.2961,0.5382 -0.49,0.6788 -0.4019,0.2916 -0.8749,0.3634 -1.4496,0.4508 -0.7882,0.1197 -1.8147,0.2757 -2.9191,1.1901 -1.0635,0.8806 -1.2617,1.924 -1.4312,2.817 -0.1516,0.7988 -0.2851,1.5018 -0.8733,2.0452 h -0.001 c -0.1223,0.1131 -0.2377,0.2069 -0.3708,0.3152 -0.1986,0.1618 -0.44,0.3582 -0.7289,0.6331 -0.3963,0.3768 -0.7269,0.9539 -0.8711,1.6297 -0.1249,0.5852 -0.1073,1.2404 0.1313,1.8987 0.3137,0.8663 0.8287,1.4883 1.4802,1.9003 0.7325,0.4632 1.6481,0.6747 2.6564,0.6796 0.2372,0 0.4846,-0.01 0.7317,-0.029 0.2699,-0.021 0.5301,-0.052 0.7698,-0.088 0.5098,-0.077 0.7377,-0.1454 0.8785,-0.1876 0.133,-0.04 0.2164,-0.065 0.3605,-0.07 0.2035,-0.01 0.3638,0.039 0.7913,0.162 l 0.1638,0.047 c 2.6657,0.7605 3.3925,0.5907 4.8941,0.2397 0.4071,-0.095 0.8683,-0.2031 1.4434,-0.3129 0.0733,-0.014 0.1449,-0.022 0.2167,-0.024 z m 1.082,-4.0066 0.008,4.203 c 0.1133,0.029 0.2302,0.058 0.3349,0.083 l 0.0897,0.021 c 2.1384,0.5043 2.8909,0.6815 4.5089,-0.098 0.145,-0.07 0.299,-0.1481 0.4627,-0.2347 0.1776,-0.094 0.3363,-0.1802 0.4803,-0.2608 l 0.0386,-0.024 c 1.0165,-0.5731 1.6527,-0.3874 2.4687,-0.1489 0.2325,0.068 0.4839,0.1414 0.7689,0.1948 1.0187,0.1913 1.9113,0.1101 2.6258,-0.1798 0.4817,-0.1955 0.8813,-0.4852 1.1811,-0.8484 0.3001,-0.3636 0.5058,-0.8054 0.5995,-1.3046 0.1323,-0.7061 0.0415,-1.5304 -0.3191,-2.4191 -0.1797,-0.4429 -0.4099,-0.8269 -0.6772,-1.1548 -0.467,-0.5722 -1.0557,-0.984 -1.699,-1.2497 0.009,0.4371 -0.0279,0.8716 -0.1154,1.2917 -0.1886,0.907 -0.6483,1.8738 -1.3105,2.6029 -0.5959,0.656 -1.359,1.1284 -2.2482,1.2199 -0.8551,0.088 -1.5487,-0.091 -2.072,-0.4381 -0.4659,-0.3092 -0.7903,-0.7478 -0.9709,-1.2508 -0.1746,-0.4863 -0.2125,-1.0307 -0.1111,-1.5706 0.1442,-0.7678 0.5701,-1.5354 1.2835,-2.1174 0.3849,-0.3141 0.8265,-0.5703 1.3024,-0.7634 0.8877,-0.3602 1.9075,-0.5086 2.9164,-0.4131 -0.0531,-0.1766 -0.1146,-0.3511 -0.1843,-0.522 -0.3865,-0.948 -1.0187,-1.7764 -1.8236,-2.2752 -0.0862,-0.053 -0.1742,-0.104 -0.2634,-0.1514 -0.8719,-0.4647 -1.8805,-0.6496 -2.8587,-0.5482 0.239,0.9154 0.3059,1.9296 0.1514,3.0232 -0.137,0.9709 -0.4735,1.841 -0.9563,2.5911 -0.7193,1.1175 -1.7633,1.9688 -2.958,2.4931 -0.2131,0.094 -0.4313,0.1765 -0.6531,0.249 z m 0.1369,-3.3288 c -0.0808,0.7619 -0.1156,1.5507 -0.1299,2.1673 0.0706,-0.028 0.1408,-0.057 0.2102,-0.088 1.0016,-0.4394 1.8752,-1.1508 2.4751,-2.0828 0.401,-0.6227 0.6803,-1.3451 0.7939,-2.1509 0.136,-0.962 0.0747,-1.8482 -0.1385,-2.6419 -0.9299,0.3151 -1.7641,0.9204 -2.3315,1.822 l -0.0163,0.028 c -0.0573,0.092 -0.1067,0.1773 -0.1481,0.255 -0.2094,0.3929 -0.3616,0.8222 -0.4745,1.271 -0.1152,0.4585 -0.1885,0.9311 -0.2389,1.4045 z m 9.5511,0.9776 c 0.0926,-0.4444 0.1152,-0.9111 0.0752,-1.3791 -0.9368,-0.1484 -1.901,-0.037 -2.7235,0.2966 -0.3804,0.1543 -0.728,0.3547 -1.0243,0.5967 -0.5014,0.409 -0.7997,0.9423 -0.8992,1.4722 -0.066,0.3523 -0.0443,0.6997 0.0643,1.0022 0.1026,0.2857 0.2859,0.5342 0.5477,0.7081 0.3234,0.2147 0.7756,0.3227 1.3584,0.2628 0.5944,-0.061 1.124,-0.3984 1.5516,-0.8694 0.5295,-0.583 0.8978,-1.3596 1.0498,-2.0901 z m -15.0514,0.6911 c 0.3032,0.1951 0.6171,0.3577 0.9383,0.4893 0.3661,-0.5747 0.6439,-1.2386 0.804,-1.914 0.1991,-0.8392 0.192,-1.7953 -0.1073,-2.6058 -0.2387,-0.6465 -0.6692,-1.1984 -1.3376,-1.5069 -0.2017,-0.093 -0.415,-0.1473 -0.6346,-0.1511 -0.2072,0 -0.4265,0.037 -0.6545,0.1299 -0.4663,0.191 -0.8008,0.598 -0.9919,1.0984 -0.2197,0.5757 -0.2511,1.2653 -0.0813,1.9081 0.1278,0.4841 0.3872,0.9368 0.7063,1.3358 0.4019,0.5024 0.8998,0.9209 1.3586,1.2163 z m -4.2941,1.695 0.0494,0.032 c 0.1603,-0.4162 0.2324,-0.8714 0.2123,-1.3088 -0.0198,-0.435 -0.1714,-0.7677 -0.3788,-0.9812 -0.1132,-0.1169 -0.2408,-0.1958 -0.3679,-0.2333 -0.107,-0.031 -0.2128,-0.033 -0.3045,-5e-4 -0.103,0.036 -0.2,0.1224 -0.2747,0.2644 -0.157,0.2983 -0.1155,0.6558 0.0304,0.9999 0.2135,0.5033 0.6337,0.9631 1.0338,1.2276 z"
         style="fill:#ffffff;fill-rule:evenodd"
         id="path184" />
      <path
         d="m 443.29556,1078.0381 c 2.1384,0.5043 2.8909,0.6815 4.5089,-0.098 0.145,-0.07 0.299,-0.1481 0.4627,-0.2347 0.1776,-0.094 0.3363,-0.1802 0.4803,-0.2608 l 0.0386,-0.024 c 1.0165,-0.5731 1.6527,-0.3874 2.4687,-0.1489 0.2325,0.068 0.4839,0.1414 0.7689,0.1948 1.0187,0.1913 1.9113,0.1101 2.6258,-0.1798 0.4817,-0.1955 0.8813,-0.4852 1.1811,-0.8484 0.3001,-0.3636 0.5058,-0.8054 0.5995,-1.3046 0.1323,-0.7061 0.0415,-1.5304 -0.3191,-2.4191 -0.1797,-0.4429 -0.4099,-0.8269 -0.6772,-1.1548 -0.467,-0.5722 -1.0557,-0.984 -1.699,-1.2497 0.009,0.4371 -0.0279,0.8716 -0.1154,1.2917 -0.1886,0.907 -0.6483,1.8738 -1.3105,2.6029 -0.5959,0.656 -1.359,1.1284 -2.2482,1.2199 -0.8551,0.088 -1.5487,-0.091 -2.072,-0.4381 -0.4659,-0.3092 -0.7903,-0.7478 -0.9709,-1.2508 -0.1746,-0.4863 -0.2125,-1.0307 -0.1111,-1.5706 0.1442,-0.7678 0.5701,-1.5354 1.2835,-2.1174 0.3849,-0.3141 0.8265,-0.5703 1.3024,-0.7634 0.8877,-0.3602 1.9075,-0.5086 2.9164,-0.4131 -0.0531,-0.1766 -0.1146,-0.3511 -0.1843,-0.522 -0.3865,-0.948 -1.0187,-1.7764 -1.8236,-2.2752 -0.0862,-0.053 -0.1742,-0.104 -0.2634,-0.1514 -0.8719,-0.4647 -1.8805,-0.6496 -2.8587,-0.5482 0.239,0.9154 0.3059,1.9296 0.1514,3.0232 -0.137,0.9709 -0.4735,1.841 -0.9563,2.5911 -0.7193,1.1175 -1.7633,1.9688 -2.958,2.4931 -0.2131,0.094 -0.4313,0.1765 -0.6531,0.249 l 0.008,4.203 c 0.1133,0.029 0.2302,0.058 0.3349,0.083 z"
         style="fill:#ff7744;fill-opacity:1;fill-rule:evenodd"
         id="path185" />
      <path
         d="m 435.45256,1082.4758 c -0.5301,0 -1.0103,0.2149 -1.3585,0.5612 -0.3466,0.3473 -0.5613,0.8276 -0.5613,1.3587 0,0.5301 0.2151,1.0103 0.5624,1.3576 0.3471,0.3471 0.8273,0.5622 1.3574,0.5622 0.5311,0 1.0114,-0.2147 1.3587,-0.5613 0.3467,-0.3472 0.5612,-0.8277 0.5612,-1.3585 0,-0.5311 -0.2145,-1.0114 -0.5612,-1.3587 -0.3473,-0.3467 -0.8276,-0.5612 -1.3587,-0.5612 z"
         style="fill:#ff7744;fill-opacity:1;fill-rule:evenodd"
         id="path186" />
      <path
         d="m 447.35746,1084.3503 c -0.0113,0.4807 0.1575,0.9667 0.5089,1.3477 l 0.0224,0.024 c 0.3666,0.3843 0.8536,0.5835 1.3447,0.5951 0.4807,0.011 0.9667,-0.1577 1.3477,-0.5091 l 0.0239,-0.022 c 0.3842,-0.3664 0.5835,-0.8535 0.5949,-1.3444 0.0113,-0.481 -0.1575,-0.9667 -0.509,-1.3478 l -0.0225,-0.024 c -0.3664,-0.384 -0.8534,-0.5834 -1.3443,-0.5948 -0.4808,-0.011 -0.9667,0.1575 -1.3477,0.5089 l -0.0135,0.014 -0.0106,0.01 c -0.3841,0.3665 -0.5835,0.8534 -0.5949,1.3445 z"
         style="fill:#ff7744;fill-opacity:1;fill-rule:evenodd"
         id="path187" />
      <path
         d="m 443.08016,1072.4823 c 1.0016,-0.4394 1.8752,-1.1508 2.4751,-2.0828 0.401,-0.6227 0.6803,-1.3451 0.7939,-2.1509 0.136,-0.962 0.0747,-1.8482 -0.1385,-2.6419 -0.9299,0.3151 -1.7641,0.9204 -2.3315,1.822 l -0.0163,0.028 c -0.0573,0.092 -0.1067,0.1773 -0.1481,0.255 -0.2094,0.3929 -0.3616,0.8222 -0.4745,1.271 -0.1152,0.4585 -0.1885,0.9311 -0.2389,1.4045 l -0.002,0.015 c -0.0808,0.7619 -0.1156,1.5507 -0.1299,2.1673 0.0706,-0.028 0.1408,-0.057 0.2102,-0.088 z"
         style="fill:#ff7744;fill-opacity:1;fill-rule:evenodd"
         id="path188" />
      <path
         d="m 448.87836,1070.8943 c -0.5014,0.409 -0.7997,0.9423 -0.8992,1.4722 -0.066,0.3523 -0.0443,0.6997 0.0643,1.0022 0.1026,0.2857 0.2859,0.5342 0.5477,0.7081 0.3234,0.2147 0.7756,0.3227 1.3584,0.2628 0.5944,-0.061 1.124,-0.3984 1.5516,-0.8694 0.5295,-0.583 0.8978,-1.3596 1.0498,-2.0901 0.0926,-0.4444 0.1152,-0.9111 0.0752,-1.3791 -0.9368,-0.1484 -1.901,-0.037 -2.7235,0.2966 -0.3804,0.1543 -0.728,0.3547 -1.0243,0.5967 z"
         style="fill:#ff7744;fill-opacity:1;fill-rule:evenodd"
         id="path189" />
      <text
         xml:space="preserve"
         style="font-size:5.24621px;fill:#ffffff;fill-opacity:1;stroke-width:0.342136"
         x="519.80963"
         y="1088.514"
         id="text1"><tspan
           sodipodi:role="line"
           id="tspan1"
           style="font-style:normal;font-variant:normal;font-weight:normal;font-stretch:normal;font-size:5.24621px;font-family:Poppins;-inkscape-font-specification:Poppins;fill:#ffffff;fill-opacity:1;stroke-width:0.342136"
           x="519.80963"
           y="1088.514">REDES</tspan></text>
    </g>
  </g>
</svg>
